<?xml version="1.0" ?><svg viewBox="0 0 512 512" xmlns="http://www.w3.org/2000/svg" xmlns:xlink="http://www.w3.org/1999/xlink"><defs><linearGradient gradientUnits="userSpaceOnUse" id="linear-gradient" x1="328.9254" x2="373.3433" y1="281.927" y2="358.8611"><stop offset="0" stop-color="#009eff"/><stop offset="1" stop-color="#003fa5"/></linearGradient><linearGradient gradientUnits="userSpaceOnUse" id="linear-gradient-2" x1="169.6084" x2="276.276" y1="187.788" y2="372.5417"><stop offset="0" stop-color="#ffe197"/><stop offset="1" stop-color="#ffa96e"/></linearGradient><linearGradient gradientUnits="userSpaceOnUse" id="linear-gradient-3" x1="100.1276" x2="154.7067" y1="197.9498" y2="292.4835"><stop offset="0" stop-color="#2e5056"/><stop offset="0.3501" stop-color="#2b4d53"/><stop offset="0.6313" stop-color="#21434b"/><stop offset="0.8877" stop-color="#11323d"/><stop offset="1" stop-color="#072835"/></linearGradient><linearGradient id="linear-gradient-4" x1="259.1616" x2="313.8054" xlink:href="#linear-gradient-3" y1="106.0487" y2="200.6945"/><linearGradient gradientUnits="userSpaceOnUse" id="linear-gradient-5" x1="162.8696" x2="209.1533" y1="122.9454" y2="203.1113"><stop offset="0" stop-color="#ffe31a"/><stop offset="1" stop-color="#ff8b00"/></linearGradient><linearGradient gradientUnits="userSpaceOnUse" id="linear-gradient-6" x1="118.8463" x2="182.9048" y1="107.3101" y2="218.2627"><stop offset="0" stop-color="#2e5056"/><stop offset="0.0364" stop-color="#2b4d54"/><stop offset="0.3641" stop-color="#173943"/><stop offset="0.6876" stop-color="#0b2c38"/><stop offset="1" stop-color="#072835"/></linearGradient><linearGradient id="linear-gradient-7" x1="205.9508" x2="255.6692" xlink:href="#linear-gradient-6" y1="86.5183" y2="86.5183"/><linearGradient gradientTransform="translate(277.8106 -80.583) rotate(60)" id="linear-gradient-8" x1="202.0439" x2="215.3404" xlink:href="#linear-gradient-6" y1="188.7844" y2="211.8146"/><linearGradient gradientUnits="userSpaceOnUse" id="linear-gradient-9" x1="206.9179" x2="206.9179" y1="197.9413" y2="237.2538"><stop offset="0" stop-color="#d6e4e5"/><stop offset="1" stop-color="#abced6"/></linearGradient><linearGradient id="linear-gradient-10" x1="197.1455" x2="235.3258" xlink:href="#linear-gradient-6" y1="240.0704" y2="240.0704"/></defs><title/><g id="Cycling"><polygon points="6 282.259 6 297.58 256 441.93 256 426.609 6 282.259" style="fill:#001335"/><polygon points="506 282.259 506 297.58 256 441.93 256 426.609 506 282.259" style="fill:#002c60"/><path d="M410.4505,227.0893a908.4711,908.4711,0,0,0-85.4519,65.5379c-33.0106,28.64-72.07,67.1164-105.6829,112.8005l6.046,3.491c63.049-85.2487,148.3733-148.7325,191.8694-177.98Z" style="fill:#072835"/><path d="M506,282.26l-88.8213-51.2854c-43.5115,29.2632-128.7922,92.7293-191.8166,177.9446L256,426.6091Z" style="fill:url(#linear-gradient)"/><path d="M324.9988,292.6272A908.4749,908.4749,0,0,1,410.45,227.0893L256,137.91,6,282.26,219.3158,405.4277C252.929,359.7436,291.9879,321.2669,324.9988,292.6272Z" style="fill:url(#linear-gradient-2)"/><path d="M347.8514,190.9445a1014.03,1014.03,0,0,0-99.0272,75.6137c-30.3261,26.31-65.22,60.0507-97.5418,99.587l6.07,3.5047c31.7963-38.7611,66.0776-71.8882,95.9-97.7693a1005.6039,1005.6039,0,0,1,101.2845-77.0761Z" style="fill:#cc0202"/><path d="M105.6461,314.0114A30.8458,30.8458,0,0,1,90.0385,309.96c-11.0914-6.406-17.2005-19.41-17.2005-36.62,0-16.0377,5.3464-34.1286,15.0542-50.9434,9.7049-16.812,22.7-30.487,36.59-38.5073,14.9051-8.6024,29.2252-9.8124,40.3137-3.4151,11.0914,6.4059,17.1991,19.41,17.1991,36.62,0,16.0349-5.3449,34.1258-15.0513,50.9435h0c-9.7093,16.8119-22.7046,30.4869-36.5918,38.5072C121.7527,311.5081,113.3481,314.0114,105.6461,314.0114Zm43.5052-125.836c-5.6259,0-12.029,1.9786-18.7962,5.8869-12.1323,7.0052-23.5993,19.1518-32.2906,34.206-8.6941,15.0571-13.4814,31.0633-13.4814,45.0709,0,12.8377,4.0231,22.2286,11.3279,26.4467s17.4543,3.0022,28.5686-3.4152c12.1294-7.0023,23.5993-19.1518,32.2906-34.206h0c8.6942-15.06,13.48-31.0662,13.48-45.0709,0-12.8376-4.0231-22.2286-11.3265-26.4466A19.2786,19.2786,0,0,0,149.1513,188.1754Z" style="fill:url(#linear-gradient-3)"/><path d="M149.1513,188.1754c-5.6259,0-12.029,1.9786-18.7962,5.8869-12.1323,7.0052-23.5993,19.1518-32.2906,34.206-8.6941,15.0571-13.4814,31.0633-13.4814,45.0709,0,12.8377,4.0231,22.2286,11.3279,26.4467s17.4543,3.0022,28.5686-3.4152c12.1294-7.0023,23.5993-19.1518,32.2906-34.206h0c8.6942-15.06,13.48-31.0662,13.48-45.0709,0-12.8376-4.0231-22.2286-11.3265-26.4466A19.2786,19.2786,0,0,0,149.1513,188.1754Z" style="fill:#072835"/><path d="M264.7562,222.1721a30.9278,30.9278,0,0,1-15.6507-4.0575c-22.1626-12.8-23.106-51.2617-2.1477-87.5638S301.6921,75.84,323.8633,88.6284c11.0914,6.4059,17.202,19.41,17.1991,36.62,0,16.0378-5.3478,34.1286-15.0542,50.9406h0C309.5518,204.692,285.1926,222.1721,264.7562,222.1721ZM308.2069,96.3275c-15.9546,0-37.1193,15.9231-51.0753,40.0958-17.0786,29.5808-18.0651,62.33-2.1535,71.5176,15.9087,9.1959,43.78-8.0433,60.8563-37.6241h0c8.6942-15.0542,13.4828-31.06,13.4828-45.068,0-12.8376-4.02-22.2286-11.3265-26.4467A19.2885,19.2885,0,0,0,308.2069,96.3275Z" style="fill:url(#linear-gradient-4)"/><path d="M308.2069,96.3275c-15.9546,0-37.1193,15.9231-51.0753,40.0958-17.0786,29.5808-18.0651,62.33-2.1535,71.5176,15.9087,9.1959,43.78-8.0433,60.8563-37.6241h0c8.6942-15.0542,13.4828-31.06,13.4828-45.068,0-12.8376-4.02-22.2286-11.3265-26.4467A19.2885,19.2885,0,0,0,308.2069,96.3275Z" style="fill:#072835"/><path d="M290.6915,154.6328a4.345,4.345,0,0,0,.0968-.4274c.0267-.1378.0559-.2744.0692-.4131.0136-.14.0111-.2806.0113-.4222s.0023-.2819-.0113-.4223c-.0133-.1387-.0425-.2752-.0692-.4131a4.345,4.345,0,0,0-.0968-.4274c-.0372-.1237-.0878-.2435-.1363-.3652a4.3856,4.3856,0,0,0-.2011-.447c-.0222-.0416-.0335-.086-.0574-.1272-.0414-.0721-.0971-.1293-.1419-.1979a3.7271,3.7271,0,0,0-.58-.714c-.0934-.0928-.1873-.1833-.29-.2683a4.3233,4.3233,0,0,0-.4224-.3039c-.0618-.04-.1127-.09-.1771-.1275L231.904,116.7819l7.24-29.26a4.4044,4.4044,0,1,0-8.5508-2.1162l-7.5859,30.6585-51.6254,29.8356c.261-5.0329.3527-10.2236.2016-15.6125a4.4033,4.4033,0,0,0-8.8031.2467c2.0015,71.4458-37.8362,110.9394-38.4155,111.5072a4.4038,4.4038,0,0,0,6.102,6.3514c1.4923-1.4342,31.3246-30.73,39.265-85.4276l33.887,39.2069c.009.01.02.017.0292.0273.0471.0535.1.1009.15.1523.07.0726.1462.1344.2208.2014.1025.0923.1957.1932.3072.276.0426.0317.091.0513.1344.0814.0534.0367.1122.0665.1674.1011.089.0553.1745.1125.2668.1613.07.0372.1362.08.2092.1138.12.0555.2471.0883.3715.1328.0778.0277.153.06.2331.0833.0506.0149.0968.04.1477.0529.0127.0032.0237.01.0364.0129.0219.0053.0434.0028.0652.0079a4.0474,4.0474,0,0,0,2.2929-.0968c.0558-.0174.114-.0213.1687-.0409.0932-.033.1736-.0987.265-.1383a4.2377,4.2377,0,0,0,.4685-.1936l79.4936-45.9.0125-.0071.026-.0151a4.3833,4.3833,0,0,0,.8112-.6151c.0672-.0631.1245-.1355.1879-.2034a4.3274,4.3274,0,0,0,.5119-.6627c.03-.0475.0724-.0814.1005-.13.0239-.0412.0352-.0857.0574-.1273a4.3839,4.3839,0,0,0,.2011-.4469C290.6037,154.8764,290.6543,154.7565,290.6915,154.6328Zm-13.0168-1.262-63.9623,36.9323,15.99-64.6224Zm-72.9558,36.6054L174.0736,154.52l45.9956-26.5821Z" style="fill:url(#linear-gradient-5)"/><path d="M177.135,218.0516a13.7955,13.7955,0,0,1-6.9995-1.7635c-4.8833-2.8188-7.358-8.5365-7.358-16.9955,0-19.43,23.9119-37.8649,35.6627-45.75l-70.9813-40.9847c-11.596,7.1744-35.4046,25.1477-35.4046,40.8127,0,4.9406,1.05,8.27,2.9535,9.368,2.7556,1.6,8.244-.5018,10.3229-1.7a4.4039,4.4039,0,0,1,4.4044,7.6274c-1.13.651-11.2634,6.2454-19.1317,1.7033-4.8819-2.8187-7.358-8.5393-7.358-16.9983,0-25.2137,40.2536-48.747,41.9683-49.7363a4.41,4.41,0,0,1,4.4044,0l79.535,45.9225a4.4049,4.4049,0,0,1,.0029,7.6275c-10.4519,6.0446-37.57,25.3914-37.57,42.1088,0,4.9406,1.0495,8.27,2.9535,9.368,2.7528,1.5943,8.244-.5018,10.3258-1.7a4.4039,4.4039,0,0,1,4.4044,7.6275A26.8355,26.8355,0,0,1,177.135,218.0516Z" style="fill:url(#linear-gradient-6)"/><path d="M207.1835,94.753l19.892-22.9713a4.9548,4.9548,0,0,1,6.2232-1.0474L253.1908,82.22a4.9548,4.9548,0,0,1-1.1033,9.0513l-39.784,11.4857A4.9548,4.9548,0,0,1,207.1835,94.753Z" style="fill:url(#linear-gradient-7)"/><ellipse cx="208.6922" cy="200.2995" rx="18.8017" ry="10.8578" style="fill:url(#linear-gradient-8)" transform="translate(-69.1184 280.8825) rotate(-60)"/><path d="M203.9028,237.2538a2.9911,2.9911,0,0,1-.5248-.0459,2.94,2.94,0,0,1-2.3685-3.4123l6.036-33.4375a2.9371,2.9371,0,1,1,5.7808,1.0438l-6.036,33.4375A2.9391,2.9391,0,0,1,203.9028,237.2538Z" style="fill:url(#linear-gradient-9)"/><path d="M210.5082,227.9457l-11.4536,6.6133a3.8184,3.8184,0,0,0-1.9091,3.3069h0a3.8184,3.8184,0,0,0,1.9091,3.3068l19.09,11.0224a3.8184,3.8184,0,0,0,3.8187,0l11.4536-6.6133a3.8185,3.8185,0,0,0,1.9092-3.3069h0a3.8187,3.8187,0,0,0-1.9092-3.3069l-19.09-11.0223A3.8186,3.8186,0,0,0,210.5082,227.9457Z" style="fill:url(#linear-gradient-10)"/></g></svg>